PathFileType	4	(X/Y/Z)	/Users/niels/Desktop/University/Third Semester/Perception and Action/Exam/Gymnastics Motion Tracking/Code for Gym Tracking/Analyzed Data/Webcam_Backflip/id8_1_baseline_Sports2D/id8_1_baseline_Sports2D_px_person00.trc
DataRate	CameraRate	NumFrames	NumMarkers	Units	OrigDataRate	OrigDataStartFrame	OrigNumFrames
29.8	29.8	6	22	m	29.8	75	150
Frame#	Time	Hip			RHip			RKnee			RAnkle			RBigToe			RSmallToe			RHeel			LHip			LKnee			LAnkle			LBigToe			LSmallToe			LHeel			Neck			Head			Nose			RShoulder			RElbow			RWrist			LShoulder			LElbow			LWrist		
		X1	Y1	Z1	X2	Y2	Z2	X3	Y3	Z3	X4	Y4	Z4	X5	Y5	Z5	X6	Y6	Z6	X7	Y7	Z7	X8	Y8	Z8	X9	Y9	Z9	X10	Y10	Z10	X11	Y11	Z11	X12	Y12	Z12	X13	Y13	Z13	X14	Y14	Z14	X15	Y15	Z15	X16	Y16	Z16	X17	Y17	Z17	X18	Y18	Z18	X19	Y19	Z19	X20	Y20	Z20	X21	Y21	Z21	X22	Y22	Z22
75	2.5167785234899327	0.9207647098541589	-0.57217243800855	0.0	0.9201482121065682	-0.5709653979337203	0.0	0.9074764722861828	-0.6708185184471422	0.0	0.8913198099523567	-0.7653493445303945	0.0	0.924429318267604	-0.7882209848896929	0.0	0.9133787369956796	-0.790359262541558	0.0	0.884781163991074	-0.7810461158082207	0.0	0.9220664913898574	-0.5701845466462653	0.0	0.9107445298151998	-0.6714406702064291	0.0	0.8944481897018496	-0.761360067600431	0.0	0.9273081731607209	-0.7845651535258222	0.0	0.9221350123307581	-0.7822672584588558	0.0	0.884604346033538	-0.774642214730373	0.0	0.9204909424716032	-0.43928389520936356	0.0	0.92374860814505	-0.3758218279355048	0.0	0.9464412378169265	-0.4081587853704174	0.0	0.9139898762170295	-0.4592553797264288	0.0	0.920417433017436	-0.5203503634915068	0.0	0.9328132732187858	-0.5649565756665684	0.0	0.9202285796152908	-0.45757722575382825	0.0	0.92888122763823	-0.5106427126508702	0.0	0.9387407224433553	-0.5498081337506454	0.0
76	2.5503355704697985	0.9203585899188184	-0.5734940699292075	0.0	0.919662371346437	-0.5723159483487629	0.0	0.907193800045984	-0.6710460189220766	0.0	0.8913265887548489	-0.7654002944946358	0.0	0.9240120304189758	-0.7880356851588203	0.0	0.9127917876751978	-0.7903491071667752	0.0	0.8846559142147365	-0.7817384432711827	0.0	0.9211918587990651	-0.5714897576759959	0.0	0.9103526162257275	-0.6717156083894568	0.0	0.8939935607542681	-0.7614662595909504	0.0	0.9268048058412041	-0.7846765028630596	0.0	0.9215623213612851	-0.782487168867078	0.0	0.8841867320642613	-0.775514760617445	0.0	0.9202907396866705	-0.4397373022884271	0.0	0.9225706672446328	-0.37594004074997295	0.0	0.9460163777272994	-0.407696809269728	0.0	0.9137602774339306	-0.460249312156301	0.0	0.9149771419265563	-0.5249099332957845	0.0	0.9264632030922947	-0.5774126275452153	0.0	0.9203720326266895	-0.4586763288462787	0.0	0.9250200212975939	-0.5164992942703452	0.0	0.9350537404682073	-0.5659922503183678	0.0
77	2.5838926174496644	0.9199696240457051	-0.5762483357863823	0.0	0.9192507058723789	-0.5750964397235601	0.0	0.9066395088883027	-0.6728981359486359	0.0	0.8911145584328624	-0.766940360923417	0.0	0.9234183544631022	-0.7892821181371144	0.0	0.9120246427247939	-0.7916371038200755	0.0	0.8844235325399429	-0.7838865890342451	0.0	0.9203929099728143	-0.5742199984608498	0.0	0.9096481988677527	-0.6735379888022824	0.0	0.8934286026020515	-0.763045723684726	0.0	0.9263081944958508	-0.7861748346291358	0.0	0.9208971282812848	-0.7840603299289111	0.0	0.8837069472866275	-0.7776885211404344	0.0	0.9200863105734928	-0.44177815529630887	0.0	0.9218137850963094	-0.3775332950731679	0.0	0.945577221036075	-0.4088651936729739	0.0	0.913550546525679	-0.46241618846417937	0.0	0.9107396482713355	-0.5284446025221906	0.0	0.9209968755537441	-0.5854218153450457	0.0	0.9201397907338856	-0.4610111654618748	0.0	0.9215426856299	-0.5211317376412518	0.0	0.9315127882695954	-0.5772741783550432	0.0
78	2.61744966442953	0.9194738660790309	-0.5800819143461152	0.0	0.918810825182689	-0.5790279541908336	0.0	0.9058374211919158	-0.6761295725853036	0.0	0.8907289562355226	-0.7697748173751091	0.0	0.922747721197139	-0.7917785734706974	0.0	0.9112267415081711	-0.7940476824566547	0.0	0.8841802920312551	-0.787188082400451	0.0	0.919595821168111	-0.5781652677817458	0.0	0.908692979770248	-0.6766935409139789	0.0	0.8927934673931326	-0.7659581707328021	0.0	0.9258495553815433	-0.7888470092098546	0.0	0.9202575621166609	-0.7867162296784147	0.0	0.8831931927683849	-0.7809443001180236	0.0	0.9198718564020615	-0.4450764773679431	0.0	0.9215296455662976	-0.3804956159569576	0.0	0.9451356290183074	-0.4115724382915088	0.0	0.91338910670867	-0.46553544959348303	0.0	0.9075503931591674	-0.5315035299259593	0.0	0.9167951397306969	-0.5905061600780372	0.0	0.9196857890938148	-0.4644420948135675	0.0	0.918543714336937	-0.5250046786035086	0.0	0.9284510544666573	-0.5845912106225246	0.0
79	2.651006711409396	0.9187664116633267	-0.5845358414416336	0.0	0.9182199463855223	-0.5836623760978512	0.0	0.9048721478591247	-0.6802384464618443	0.0	0.8902356895183611	-0.7734750695181845	0.0	0.9220880898039104	-0.7950774640863194	0.0	0.9105246162686158	-0.7972132291071116	0.0	0.8839612557656892	-0.7911338790980887	0.0	0.9187626647493076	-0.5828921910057199	0.0	0.9076159141042855	-0.680733529716541	0.0	0.8921376714073106	-0.7698163496795132	0.0	0.9254658607347784	-0.792231472666466	0.0	0.9197361542674789	-0.7899971751547347	0.0	0.8826679856238234	-0.7848814395390373	0.0	0.9196315077961799	-0.44915676632958257	0.0	0.9216596993785436	-0.3844753552728747	0.0	0.9446815117283047	-0.4154550880505844	0.0	0.9132675897165357	-0.4692704696429573	0.0	0.9052623823381594	-0.53433299086203	0.0	0.9140729687855976	-0.5938899017700594	0.0	0.9191775725785573	-0.468585889461338	0.0	0.9161127315964465	-0.5284192363080842	0.0	0.9261070563296291	-0.5890956796943604	0.0
80	2.684563758389262	0.9178354412824308	-0.5891221504211059	0.0	0.917356609042847	-0.588440076823331	0.0	0.9038488989340718	-0.6845627019487328	0.0	0.8896761794826609	-0.777490692499622	0.0	0.9214891138440837	-0.7985744163848024	0.0	0.9099656118455318	-0.8006486221769794	0.0	0.883713624307178	-0.7951396224233531	0.0	0.9179693666389213	-0.5878269118782307	0.0	0.9066117896453185	-0.6850505887128309	0.0	0.8915505567984098	-0.7740790193241865	0.0	0.9252141550870269	-0.7957547571154706	0.0	0.9194099410184738	-0.7933963336295892	0.0	0.8821990325216055	-0.7890159278824536	0.0	0.9193706888154909	-0.4534561351152219	0.0	0.9220254227508301	-0.3889258117694124	0.0	0.9441912237111709	-0.4199439139668381	0.0	0.9130571749735938	-0.4731671939262232	0.0	0.9036864457947948	-0.5370215453524977	0.0	0.9128933116162093	-0.5963996998277911	0.0	0.9188245082106428	-0.4728943941618785	0.0	0.9143514164902448	-0.5315362323829878	0.0	0.9246148496845817	-0.5918397855004079	0.0
